Coordinates
version=1
nRows=7
nColumns=40
inDegrees=yes

Units are S.I. units (second, meters, Newtons, ...)
If the header above contains a line with 'inDegrees', this indicates whether rotational values are in degrees (yes) or radians (no).

endheader
time	pelvis_tilt	pelvis_list	pelvis_rotation	pelvis_tx	pelvis_ty	pelvis_tz	hip_flexion_r	hip_adduction_r	hip_rotation_r	knee_angle_r	knee_angle_r_beta	ankle_angle_r	subtalar_angle_r	mtp_angle_r	hip_flexion_l	hip_adduction_l	hip_rotation_l	knee_angle_l	knee_angle_l_beta	ankle_angle_l	subtalar_angle_l	mtp_angle_l	lumbar_extension	lumbar_bending	lumbar_rotation	arm_flex_r	arm_add_r	arm_rot_r	elbow_flex_r	pro_sup_r	wrist_flex_r	wrist_dev_r	arm_flex_l	arm_add_l	arm_rot_l	elbow_flex_l	pro_sup_l	wrist_flex_l	wrist_dev_l
      0.40000000	      3.59941590	     -0.34856370	     -3.66395542	     -0.73321006	      0.96694798	      0.28150228	    -11.09897720	      2.88254308	     -0.38546985	      4.84426787	      0.08454842	      6.75830987	      0.00000000	      0.00000000	     21.80667539	     -6.30614135	    -10.27725718	     38.19255944	      0.66658591	      2.87949806	      0.00000000	      0.00000000	    -14.69510059	     -0.51531443	     13.84143678	      5.68678347	    -10.35668533	     -7.37631864	     62.44453138	     88.12580649	     -3.13154997	      8.45211585	     -5.22893801	    -10.70538084	     15.63282730	     34.85912335	     89.33572442	     -9.26591418	     12.12202838
      0.41000000	      3.62962880	     -0.51010616	     -4.02363043	     -0.71920216	      0.96435746	      0.28200361	    -12.24624255	      2.95208841	     -0.03967520	      4.48263939	      0.07823682	      7.33525420	      0.00000000	      0.00000000	     21.94914261	     -6.27611713	    -10.35953745	     34.35166232	      0.59954961	      3.21807113	      0.00000000	      0.00000000	    -14.78701537	     -0.47421117	     14.67113293	      5.75635194	    -10.90583991	     -7.57953544	     64.34865109	     88.16916489	     -3.34527321	      8.28642012	     -5.75039054	    -10.67675396	     15.89403873	     34.03848958	     89.32321061	    -12.14435190	     10.33002906
      0.42000000	      3.31138158	     -0.91059757	     -4.16244799	     -0.70521757	      0.96091352	      0.28223231	    -12.96423687	      3.34057967	      0.03046521	      4.29140266	      0.07489911	      7.98467393	      0.00000000	      0.00000000	     22.51106833	     -6.44260630	    -10.03228333	     30.60817554	      0.53421344	      3.47497057	      0.00000000	      0.00000000	    -14.46862774	     -0.11272804	     15.15818610	      5.99093313	    -11.43702017	     -7.53601426	     65.85396525	     88.13315742	     -3.31291849	      8.08510381	     -6.53258368	    -10.64321211	     15.23688184	     33.68549520	     89.31730705	    -12.38239676	     10.16180651
      0.43000000	      2.96665825	     -1.38654185	     -4.29793942	     -0.69123739	      0.95730424	      0.28236224	    -13.60282880	      3.80329675	      0.08002196	      4.22651415	      0.07376659	      8.57829419	      0.00000000	      0.00000000	     23.03825860	     -6.67848060	     -9.56160754	     26.87891654	      0.46912559	      3.66725819	      0.00000000	      0.00000000	    -14.11837561	      0.34713341	     15.58938949	      6.28131965	    -11.98907974	     -7.36636252	     67.17136080	     88.05977710	     -3.27806550	      7.93927076	     -7.27341531	    -10.60860765	     14.69813210	     33.33640950	     89.30043576	    -12.58109683	     10.06455708
      0.44000000	      3.04319949	     -1.63465787	     -4.49596558	     -0.67701340	      0.95429205	      0.28256039	    -14.68587284	      3.96977511	      0.03281007	      4.18342078	      0.07301447	      9.20863274	      0.00000000	      0.00000000	     22.96065404	     -6.70189546	     -9.39100922	     23.09626529	      0.40310587	      3.56951598	      0.00000000	      0.00000000	    -14.28902711	      0.48070842	     15.98266622	      6.55253406	    -12.41513725	     -7.35823371	     68.59083557	     88.09041896	     -3.35815975	      7.78578314	     -8.11235301	    -10.50217597	     13.46744959	     33.30565349	     89.30165684	    -13.24932969	      9.44315666
      0.45000000	      2.75433223	     -2.08609130	     -4.61338623	     -0.66278964	      0.95067450	      0.28251716	    -15.31325611	      4.38287230	      0.07046432	      4.31555903	      0.07532071	      9.76360384	      0.00000000	      0.00000000	     23.31664607	     -6.92451854	     -8.84747329	     19.62905309	      0.34259161	      3.48896955	      0.00000000	      0.00000000	    -13.99956177	      0.91955666	     16.33024226	      6.81109109	    -12.85822941	     -7.27072327	     69.68131253	     88.03582598	     -3.36351782	      7.66224483	     -8.77091620	    -10.40558123	     12.78324132	     32.96406131	     89.28086049	    -13.54798545	      9.28993370
      0.46000000	      2.93552240	     -2.31066300	     -4.81626327	     -0.64825009	      0.94783341	      0.28262556	    -16.44906252	      4.48632805	     -0.05851958	      4.42832811	      0.07728891	     10.28703327	      0.00000000	      0.00000000	     23.06208206	     -6.95303431	     -8.64205432	     16.35904911	      0.28551927	      3.17407180	      0.00000000	      0.00000000	    -14.26288141	      1.01389218	     16.51833429	      7.21958599	    -13.18567831	     -7.03920674	     70.65929076	     88.04049342	     -3.52769464	      7.51841378	     -9.63685272	    -10.24274811	     11.39779184	     33.01956640	     89.27944422	    -14.56915905	      8.44861619
